<mxfile host="app.diagrams.net" modified="2023-12-13T05:15:38.184Z" agent="Mozilla/5.0 (X11; Linux x86_64) AppleWebKit/537.36 (KHTML, like Gecko) Chrome/119.0.0.0 Safari/537.36" etag="UhItmY4jBCs_hB6CNx3M" version="22.1.8" type="google">
  <diagram id="C5RBs43oDa-KdzZeNtuy" name="Page-1">
    <mxGraphModel grid="0" page="0" gridSize="10" guides="1" tooltips="1" connect="1" arrows="1" fold="1" pageScale="1" pageWidth="827" pageHeight="1169" math="0" shadow="0">
      <root>
        <mxCell id="WIyWlLk6GJQsqaUBKTNV-0" />
        <mxCell id="WIyWlLk6GJQsqaUBKTNV-1" parent="WIyWlLk6GJQsqaUBKTNV-0" />
        <mxCell id="i9Ncjx0NFvdt08tSOxbg-90" style="edgeStyle=orthogonalEdgeStyle;rounded=0;orthogonalLoop=1;jettySize=auto;html=1;exitX=0.5;exitY=1;exitDx=0;exitDy=0;entryX=0.5;entryY=0;entryDx=0;entryDy=0;" edge="1" parent="WIyWlLk6GJQsqaUBKTNV-1" source="WIyWlLk6GJQsqaUBKTNV-3" target="i9Ncjx0NFvdt08tSOxbg-66">
          <mxGeometry relative="1" as="geometry" />
        </mxCell>
        <mxCell id="WIyWlLk6GJQsqaUBKTNV-3" value="Start" style="rounded=1;whiteSpace=wrap;html=1;fontSize=12;glass=0;strokeWidth=1;shadow=0;" vertex="1" parent="WIyWlLk6GJQsqaUBKTNV-1">
          <mxGeometry x="160" y="60" width="120" height="60" as="geometry" />
        </mxCell>
        <mxCell id="i9Ncjx0NFvdt08tSOxbg-94" style="edgeStyle=orthogonalEdgeStyle;rounded=0;orthogonalLoop=1;jettySize=auto;html=1;exitX=1;exitY=0.5;exitDx=0;exitDy=0;entryX=1;entryY=0.5;entryDx=0;entryDy=0;" edge="1" parent="WIyWlLk6GJQsqaUBKTNV-1" source="i9Ncjx0NFvdt08tSOxbg-8" target="i9Ncjx0NFvdt08tSOxbg-67">
          <mxGeometry relative="1" as="geometry" />
        </mxCell>
        <mxCell id="i9Ncjx0NFvdt08tSOxbg-102" style="edgeStyle=orthogonalEdgeStyle;rounded=0;orthogonalLoop=1;jettySize=auto;html=1;exitX=0.5;exitY=1;exitDx=0;exitDy=0;entryX=0;entryY=0.5;entryDx=0;entryDy=0;" edge="1" parent="WIyWlLk6GJQsqaUBKTNV-1" source="i9Ncjx0NFvdt08tSOxbg-8" target="i9Ncjx0NFvdt08tSOxbg-70">
          <mxGeometry relative="1" as="geometry" />
        </mxCell>
        <mxCell id="i9Ncjx0NFvdt08tSOxbg-8" value="Has the front sensor reached the first turning offset?" style="rhombus;whiteSpace=wrap;html=1;" vertex="1" parent="WIyWlLk6GJQsqaUBKTNV-1">
          <mxGeometry x="150" y="460" width="140" height="130" as="geometry" />
        </mxCell>
        <mxCell id="i9Ncjx0NFvdt08tSOxbg-36" style="edgeStyle=orthogonalEdgeStyle;rounded=0;orthogonalLoop=1;jettySize=auto;html=1;exitX=0.5;exitY=1;exitDx=0;exitDy=0;entryX=0.5;entryY=0;entryDx=0;entryDy=0;" edge="1" parent="WIyWlLk6GJQsqaUBKTNV-1">
          <mxGeometry relative="1" as="geometry">
            <mxPoint x="414" y="280" as="sourcePoint" />
            <mxPoint x="414" y="310" as="targetPoint" />
          </mxGeometry>
        </mxCell>
        <mxCell id="i9Ncjx0NFvdt08tSOxbg-91" style="edgeStyle=orthogonalEdgeStyle;rounded=0;orthogonalLoop=1;jettySize=auto;html=1;exitX=0.5;exitY=1;exitDx=0;exitDy=0;entryX=0.5;entryY=0;entryDx=0;entryDy=0;" edge="1" parent="WIyWlLk6GJQsqaUBKTNV-1" source="i9Ncjx0NFvdt08tSOxbg-66" target="i9Ncjx0NFvdt08tSOxbg-67">
          <mxGeometry relative="1" as="geometry" />
        </mxCell>
        <mxCell id="i9Ncjx0NFvdt08tSOxbg-66" value="Rotate an angle &amp;gt;180 using encoders" style="rounded=0;whiteSpace=wrap;html=1;" vertex="1" parent="WIyWlLk6GJQsqaUBKTNV-1">
          <mxGeometry x="160" y="160" width="120" height="60" as="geometry" />
        </mxCell>
        <mxCell id="i9Ncjx0NFvdt08tSOxbg-92" style="edgeStyle=orthogonalEdgeStyle;rounded=0;orthogonalLoop=1;jettySize=auto;html=1;exitX=0.5;exitY=1;exitDx=0;exitDy=0;entryX=0.5;entryY=0;entryDx=0;entryDy=0;" edge="1" parent="WIyWlLk6GJQsqaUBKTNV-1" source="i9Ncjx0NFvdt08tSOxbg-67" target="i9Ncjx0NFvdt08tSOxbg-68">
          <mxGeometry relative="1" as="geometry" />
        </mxCell>
        <mxCell id="i9Ncjx0NFvdt08tSOxbg-67" value="Align to the walls using side ultrasonics" style="rounded=0;whiteSpace=wrap;html=1;" vertex="1" parent="WIyWlLk6GJQsqaUBKTNV-1">
          <mxGeometry x="160" y="260" width="120" height="60" as="geometry" />
        </mxCell>
        <mxCell id="i9Ncjx0NFvdt08tSOxbg-93" style="edgeStyle=orthogonalEdgeStyle;rounded=0;orthogonalLoop=1;jettySize=auto;html=1;exitX=0.5;exitY=1;exitDx=0;exitDy=0;entryX=0.5;entryY=0;entryDx=0;entryDy=0;" edge="1" parent="WIyWlLk6GJQsqaUBKTNV-1" source="i9Ncjx0NFvdt08tSOxbg-68" target="i9Ncjx0NFvdt08tSOxbg-8">
          <mxGeometry relative="1" as="geometry" />
        </mxCell>
        <mxCell id="i9Ncjx0NFvdt08tSOxbg-68" value="Move forward" style="rounded=0;whiteSpace=wrap;html=1;" vertex="1" parent="WIyWlLk6GJQsqaUBKTNV-1">
          <mxGeometry x="160" y="358" width="120" height="60" as="geometry" />
        </mxCell>
        <mxCell id="i9Ncjx0NFvdt08tSOxbg-96" value="" style="edgeStyle=orthogonalEdgeStyle;rounded=0;orthogonalLoop=1;jettySize=auto;html=1;" edge="1" parent="WIyWlLk6GJQsqaUBKTNV-1" source="i9Ncjx0NFvdt08tSOxbg-70" target="i9Ncjx0NFvdt08tSOxbg-71">
          <mxGeometry relative="1" as="geometry" />
        </mxCell>
        <mxCell id="i9Ncjx0NFvdt08tSOxbg-70" value="&lt;span style=&quot;color: rgb(0, 0, 0); font-family: Helvetica; font-size: 12px; font-style: normal; font-variant-ligatures: normal; font-variant-caps: normal; font-weight: 400; letter-spacing: normal; orphans: 2; text-align: center; text-indent: 0px; text-transform: none; widows: 2; word-spacing: 0px; -webkit-text-stroke-width: 0px; background-color: rgb(251, 251, 251); text-decoration-thickness: initial; text-decoration-style: initial; text-decoration-color: initial; float: none; display: inline !important;&quot;&gt;Rotate an angle &amp;gt;90 using encoders&lt;/span&gt;" style="rounded=0;whiteSpace=wrap;html=1;" vertex="1" parent="WIyWlLk6GJQsqaUBKTNV-1">
          <mxGeometry x="360" y="60" width="120" height="60" as="geometry" />
        </mxCell>
        <mxCell id="i9Ncjx0NFvdt08tSOxbg-97" value="" style="edgeStyle=orthogonalEdgeStyle;rounded=0;orthogonalLoop=1;jettySize=auto;html=1;" edge="1" parent="WIyWlLk6GJQsqaUBKTNV-1" source="i9Ncjx0NFvdt08tSOxbg-71" target="i9Ncjx0NFvdt08tSOxbg-72">
          <mxGeometry relative="1" as="geometry" />
        </mxCell>
        <mxCell id="i9Ncjx0NFvdt08tSOxbg-71" value="Align to the walls using side ultrasonics" style="rounded=0;whiteSpace=wrap;html=1;" vertex="1" parent="WIyWlLk6GJQsqaUBKTNV-1">
          <mxGeometry x="360" y="160" width="120" height="60" as="geometry" />
        </mxCell>
        <mxCell id="i9Ncjx0NFvdt08tSOxbg-98" value="" style="edgeStyle=orthogonalEdgeStyle;rounded=0;orthogonalLoop=1;jettySize=auto;html=1;" edge="1" parent="WIyWlLk6GJQsqaUBKTNV-1" source="i9Ncjx0NFvdt08tSOxbg-72" target="i9Ncjx0NFvdt08tSOxbg-73">
          <mxGeometry relative="1" as="geometry" />
        </mxCell>
        <mxCell id="i9Ncjx0NFvdt08tSOxbg-72" value="Move forward" style="rounded=0;whiteSpace=wrap;html=1;" vertex="1" parent="WIyWlLk6GJQsqaUBKTNV-1">
          <mxGeometry x="360" y="260" width="120" height="60" as="geometry" />
        </mxCell>
        <mxCell id="i9Ncjx0NFvdt08tSOxbg-99" style="edgeStyle=orthogonalEdgeStyle;rounded=0;orthogonalLoop=1;jettySize=auto;html=1;exitX=1;exitY=0.5;exitDx=0;exitDy=0;entryX=1;entryY=0.5;entryDx=0;entryDy=0;" edge="1" parent="WIyWlLk6GJQsqaUBKTNV-1" source="i9Ncjx0NFvdt08tSOxbg-73" target="i9Ncjx0NFvdt08tSOxbg-71">
          <mxGeometry relative="1" as="geometry" />
        </mxCell>
        <mxCell id="i9Ncjx0NFvdt08tSOxbg-101" style="edgeStyle=orthogonalEdgeStyle;rounded=0;orthogonalLoop=1;jettySize=auto;html=1;exitX=0.5;exitY=1;exitDx=0;exitDy=0;entryX=0;entryY=0.5;entryDx=0;entryDy=0;" edge="1" parent="WIyWlLk6GJQsqaUBKTNV-1" source="i9Ncjx0NFvdt08tSOxbg-73" target="i9Ncjx0NFvdt08tSOxbg-76">
          <mxGeometry relative="1" as="geometry" />
        </mxCell>
        <mxCell id="i9Ncjx0NFvdt08tSOxbg-73" value="Has the robot crossed gate?" style="rhombus;whiteSpace=wrap;html=1;" vertex="1" parent="WIyWlLk6GJQsqaUBKTNV-1">
          <mxGeometry x="350" y="360" width="140" height="130" as="geometry" />
        </mxCell>
        <mxCell id="i9Ncjx0NFvdt08tSOxbg-103" value="" style="edgeStyle=orthogonalEdgeStyle;rounded=0;orthogonalLoop=1;jettySize=auto;html=1;" edge="1" parent="WIyWlLk6GJQsqaUBKTNV-1" source="i9Ncjx0NFvdt08tSOxbg-76" target="i9Ncjx0NFvdt08tSOxbg-77">
          <mxGeometry relative="1" as="geometry" />
        </mxCell>
        <mxCell id="i9Ncjx0NFvdt08tSOxbg-76" value="Align to the walls using side ultrasonics" style="rounded=0;whiteSpace=wrap;html=1;" vertex="1" parent="WIyWlLk6GJQsqaUBKTNV-1">
          <mxGeometry x="560" y="60" width="120" height="60" as="geometry" />
        </mxCell>
        <mxCell id="i9Ncjx0NFvdt08tSOxbg-104" value="" style="edgeStyle=orthogonalEdgeStyle;rounded=0;orthogonalLoop=1;jettySize=auto;html=1;" edge="1" parent="WIyWlLk6GJQsqaUBKTNV-1" source="i9Ncjx0NFvdt08tSOxbg-77" target="i9Ncjx0NFvdt08tSOxbg-78">
          <mxGeometry relative="1" as="geometry" />
        </mxCell>
        <mxCell id="i9Ncjx0NFvdt08tSOxbg-77" value="Move forward" style="rounded=0;whiteSpace=wrap;html=1;" vertex="1" parent="WIyWlLk6GJQsqaUBKTNV-1">
          <mxGeometry x="560" y="160" width="120" height="60" as="geometry" />
        </mxCell>
        <mxCell id="i9Ncjx0NFvdt08tSOxbg-105" value="" style="edgeStyle=orthogonalEdgeStyle;rounded=0;orthogonalLoop=1;jettySize=auto;html=1;" edge="1" parent="WIyWlLk6GJQsqaUBKTNV-1" source="i9Ncjx0NFvdt08tSOxbg-78" target="i9Ncjx0NFvdt08tSOxbg-80">
          <mxGeometry relative="1" as="geometry" />
        </mxCell>
        <mxCell id="i9Ncjx0NFvdt08tSOxbg-107" style="edgeStyle=orthogonalEdgeStyle;rounded=0;orthogonalLoop=1;jettySize=auto;html=1;exitX=1;exitY=0.5;exitDx=0;exitDy=0;entryX=1;entryY=0.5;entryDx=0;entryDy=0;" edge="1" parent="WIyWlLk6GJQsqaUBKTNV-1" source="i9Ncjx0NFvdt08tSOxbg-78" target="i9Ncjx0NFvdt08tSOxbg-76">
          <mxGeometry relative="1" as="geometry" />
        </mxCell>
        <mxCell id="i9Ncjx0NFvdt08tSOxbg-78" value="Has the robot arm reached within vicinity of the blackboard?" style="rhombus;whiteSpace=wrap;html=1;" vertex="1" parent="WIyWlLk6GJQsqaUBKTNV-1">
          <mxGeometry x="550" y="260" width="140" height="130" as="geometry" />
        </mxCell>
        <mxCell id="i9Ncjx0NFvdt08tSOxbg-106" value="" style="edgeStyle=orthogonalEdgeStyle;rounded=0;orthogonalLoop=1;jettySize=auto;html=1;" edge="1" parent="WIyWlLk6GJQsqaUBKTNV-1" source="i9Ncjx0NFvdt08tSOxbg-80" target="i9Ncjx0NFvdt08tSOxbg-81">
          <mxGeometry relative="1" as="geometry" />
        </mxCell>
        <mxCell id="i9Ncjx0NFvdt08tSOxbg-80" value="Actuate arm to make contact and retract" style="rounded=0;whiteSpace=wrap;html=1;" vertex="1" parent="WIyWlLk6GJQsqaUBKTNV-1">
          <mxGeometry x="560" y="420" width="120" height="60" as="geometry" />
        </mxCell>
        <mxCell id="i9Ncjx0NFvdt08tSOxbg-108" style="edgeStyle=orthogonalEdgeStyle;rounded=0;orthogonalLoop=1;jettySize=auto;html=1;exitX=0.5;exitY=1;exitDx=0;exitDy=0;entryX=0;entryY=0.5;entryDx=0;entryDy=0;" edge="1" parent="WIyWlLk6GJQsqaUBKTNV-1" source="i9Ncjx0NFvdt08tSOxbg-81" target="i9Ncjx0NFvdt08tSOxbg-82">
          <mxGeometry relative="1" as="geometry" />
        </mxCell>
        <mxCell id="i9Ncjx0NFvdt08tSOxbg-81" value="&lt;span style=&quot;color: rgb(0, 0, 0); font-family: Helvetica; font-size: 12px; font-style: normal; font-variant-ligatures: normal; font-variant-caps: normal; font-weight: 400; letter-spacing: normal; orphans: 2; text-align: center; text-indent: 0px; text-transform: none; widows: 2; word-spacing: 0px; -webkit-text-stroke-width: 0px; background-color: rgb(251, 251, 251); text-decoration-thickness: initial; text-decoration-style: initial; text-decoration-color: initial; float: none; display: inline !important;&quot;&gt;Rotate an angle &amp;gt;90 using encoders&lt;/span&gt;" style="rounded=0;whiteSpace=wrap;html=1;" vertex="1" parent="WIyWlLk6GJQsqaUBKTNV-1">
          <mxGeometry x="560" y="520" width="120" height="60" as="geometry" />
        </mxCell>
        <mxCell id="i9Ncjx0NFvdt08tSOxbg-111" value="" style="edgeStyle=orthogonalEdgeStyle;rounded=0;orthogonalLoop=1;jettySize=auto;html=1;" edge="1" parent="WIyWlLk6GJQsqaUBKTNV-1" source="i9Ncjx0NFvdt08tSOxbg-82" target="i9Ncjx0NFvdt08tSOxbg-83">
          <mxGeometry relative="1" as="geometry" />
        </mxCell>
        <mxCell id="i9Ncjx0NFvdt08tSOxbg-82" value="Align to the walls using side ultrasonics" style="rounded=0;whiteSpace=wrap;html=1;" vertex="1" parent="WIyWlLk6GJQsqaUBKTNV-1">
          <mxGeometry x="761" y="60" width="120" height="60" as="geometry" />
        </mxCell>
        <mxCell id="i9Ncjx0NFvdt08tSOxbg-110" value="" style="edgeStyle=orthogonalEdgeStyle;rounded=0;orthogonalLoop=1;jettySize=auto;html=1;" edge="1" parent="WIyWlLk6GJQsqaUBKTNV-1" source="i9Ncjx0NFvdt08tSOxbg-83" target="i9Ncjx0NFvdt08tSOxbg-84">
          <mxGeometry relative="1" as="geometry" />
        </mxCell>
        <mxCell id="i9Ncjx0NFvdt08tSOxbg-83" value="Move forward" style="rounded=0;whiteSpace=wrap;html=1;" vertex="1" parent="WIyWlLk6GJQsqaUBKTNV-1">
          <mxGeometry x="761" y="160" width="120" height="60" as="geometry" />
        </mxCell>
        <mxCell id="i9Ncjx0NFvdt08tSOxbg-112" value="" style="edgeStyle=orthogonalEdgeStyle;rounded=0;orthogonalLoop=1;jettySize=auto;html=1;" edge="1" parent="WIyWlLk6GJQsqaUBKTNV-1" source="i9Ncjx0NFvdt08tSOxbg-84" target="i9Ncjx0NFvdt08tSOxbg-85">
          <mxGeometry relative="1" as="geometry" />
        </mxCell>
        <mxCell id="i9Ncjx0NFvdt08tSOxbg-123" style="edgeStyle=orthogonalEdgeStyle;rounded=0;orthogonalLoop=1;jettySize=auto;html=1;exitX=1;exitY=0.5;exitDx=0;exitDy=0;entryX=1;entryY=0.5;entryDx=0;entryDy=0;" edge="1" parent="WIyWlLk6GJQsqaUBKTNV-1" source="i9Ncjx0NFvdt08tSOxbg-84" target="i9Ncjx0NFvdt08tSOxbg-82">
          <mxGeometry relative="1" as="geometry" />
        </mxCell>
        <mxCell id="i9Ncjx0NFvdt08tSOxbg-84" value="Has the front sensor reached the second turning offset?" style="rhombus;whiteSpace=wrap;html=1;" vertex="1" parent="WIyWlLk6GJQsqaUBKTNV-1">
          <mxGeometry x="751" y="260" width="140" height="130" as="geometry" />
        </mxCell>
        <mxCell id="i9Ncjx0NFvdt08tSOxbg-113" style="edgeStyle=orthogonalEdgeStyle;rounded=0;orthogonalLoop=1;jettySize=auto;html=1;exitX=0.5;exitY=1;exitDx=0;exitDy=0;entryX=0;entryY=0.5;entryDx=0;entryDy=0;" edge="1" parent="WIyWlLk6GJQsqaUBKTNV-1" source="i9Ncjx0NFvdt08tSOxbg-85" target="i9Ncjx0NFvdt08tSOxbg-86">
          <mxGeometry relative="1" as="geometry" />
        </mxCell>
        <mxCell id="i9Ncjx0NFvdt08tSOxbg-85" value="&lt;span style=&quot;color: rgb(0, 0, 0); font-family: Helvetica; font-size: 12px; font-style: normal; font-variant-ligatures: normal; font-variant-caps: normal; font-weight: 400; letter-spacing: normal; orphans: 2; text-align: center; text-indent: 0px; text-transform: none; widows: 2; word-spacing: 0px; -webkit-text-stroke-width: 0px; background-color: rgb(251, 251, 251); text-decoration-thickness: initial; text-decoration-style: initial; text-decoration-color: initial; float: none; display: inline !important;&quot;&gt;Rotate an angle &amp;gt;90 using encoders&lt;/span&gt;" style="rounded=0;whiteSpace=wrap;html=1;" vertex="1" parent="WIyWlLk6GJQsqaUBKTNV-1">
          <mxGeometry x="761" y="420" width="120" height="60" as="geometry" />
        </mxCell>
        <mxCell id="i9Ncjx0NFvdt08tSOxbg-114" value="" style="edgeStyle=orthogonalEdgeStyle;rounded=0;orthogonalLoop=1;jettySize=auto;html=1;" edge="1" parent="WIyWlLk6GJQsqaUBKTNV-1" source="i9Ncjx0NFvdt08tSOxbg-86" target="i9Ncjx0NFvdt08tSOxbg-87">
          <mxGeometry relative="1" as="geometry" />
        </mxCell>
        <mxCell id="i9Ncjx0NFvdt08tSOxbg-86" value="Align to the walls using side ultrasonics" style="rounded=0;whiteSpace=wrap;html=1;" vertex="1" parent="WIyWlLk6GJQsqaUBKTNV-1">
          <mxGeometry x="960" y="60" width="120" height="60" as="geometry" />
        </mxCell>
        <mxCell id="i9Ncjx0NFvdt08tSOxbg-115" value="" style="edgeStyle=orthogonalEdgeStyle;rounded=0;orthogonalLoop=1;jettySize=auto;html=1;" edge="1" parent="WIyWlLk6GJQsqaUBKTNV-1" source="i9Ncjx0NFvdt08tSOxbg-87" target="i9Ncjx0NFvdt08tSOxbg-88">
          <mxGeometry relative="1" as="geometry" />
        </mxCell>
        <mxCell id="i9Ncjx0NFvdt08tSOxbg-87" value="Move forward" style="rounded=0;whiteSpace=wrap;html=1;" vertex="1" parent="WIyWlLk6GJQsqaUBKTNV-1">
          <mxGeometry x="960" y="160" width="120" height="60" as="geometry" />
        </mxCell>
        <mxCell id="i9Ncjx0NFvdt08tSOxbg-116" style="edgeStyle=orthogonalEdgeStyle;rounded=0;orthogonalLoop=1;jettySize=auto;html=1;exitX=1;exitY=0.5;exitDx=0;exitDy=0;entryX=1;entryY=0.5;entryDx=0;entryDy=0;" edge="1" parent="WIyWlLk6GJQsqaUBKTNV-1" source="i9Ncjx0NFvdt08tSOxbg-88" target="i9Ncjx0NFvdt08tSOxbg-86">
          <mxGeometry relative="1" as="geometry" />
        </mxCell>
        <mxCell id="i9Ncjx0NFvdt08tSOxbg-117" value="" style="edgeStyle=orthogonalEdgeStyle;rounded=0;orthogonalLoop=1;jettySize=auto;html=1;" edge="1" parent="WIyWlLk6GJQsqaUBKTNV-1" source="i9Ncjx0NFvdt08tSOxbg-88" target="i9Ncjx0NFvdt08tSOxbg-89">
          <mxGeometry relative="1" as="geometry" />
        </mxCell>
        <mxCell id="i9Ncjx0NFvdt08tSOxbg-88" value="Has the robot crossed gate?" style="rhombus;whiteSpace=wrap;html=1;" vertex="1" parent="WIyWlLk6GJQsqaUBKTNV-1">
          <mxGeometry x="950" y="260" width="140" height="130" as="geometry" />
        </mxCell>
        <mxCell id="i9Ncjx0NFvdt08tSOxbg-89" value="Stop" style="rounded=1;whiteSpace=wrap;html=1;fontSize=12;glass=0;strokeWidth=1;shadow=0;" vertex="1" parent="WIyWlLk6GJQsqaUBKTNV-1">
          <mxGeometry x="960" y="420" width="120" height="60" as="geometry" />
        </mxCell>
        <mxCell id="i9Ncjx0NFvdt08tSOxbg-118" value="No" style="text;html=1;align=center;verticalAlign=middle;resizable=0;points=[];autosize=1;strokeColor=none;fillColor=none;" vertex="1" parent="WIyWlLk6GJQsqaUBKTNV-1">
          <mxGeometry x="270" y="480" width="40" height="30" as="geometry" />
        </mxCell>
        <mxCell id="i9Ncjx0NFvdt08tSOxbg-119" value="Yes" style="text;html=1;align=center;verticalAlign=middle;resizable=0;points=[];autosize=1;strokeColor=none;fillColor=none;" vertex="1" parent="WIyWlLk6GJQsqaUBKTNV-1">
          <mxGeometry x="270" y="578" width="40" height="30" as="geometry" />
        </mxCell>
        <mxCell id="i9Ncjx0NFvdt08tSOxbg-120" value="No" style="text;html=1;align=center;verticalAlign=middle;resizable=0;points=[];autosize=1;strokeColor=none;fillColor=none;" vertex="1" parent="WIyWlLk6GJQsqaUBKTNV-1">
          <mxGeometry x="460" y="373" width="40" height="30" as="geometry" />
        </mxCell>
        <mxCell id="i9Ncjx0NFvdt08tSOxbg-121" value="No" style="text;html=1;align=center;verticalAlign=middle;resizable=0;points=[];autosize=1;strokeColor=none;fillColor=none;" vertex="1" parent="WIyWlLk6GJQsqaUBKTNV-1">
          <mxGeometry x="670" y="275" width="40" height="30" as="geometry" />
        </mxCell>
        <mxCell id="i9Ncjx0NFvdt08tSOxbg-122" value="No" style="text;html=1;align=center;verticalAlign=middle;resizable=0;points=[];autosize=1;strokeColor=none;fillColor=none;" vertex="1" parent="WIyWlLk6GJQsqaUBKTNV-1">
          <mxGeometry x="870" y="275" width="40" height="30" as="geometry" />
        </mxCell>
        <mxCell id="i9Ncjx0NFvdt08tSOxbg-124" value="No" style="text;html=1;align=center;verticalAlign=middle;resizable=0;points=[];autosize=1;strokeColor=none;fillColor=none;" vertex="1" parent="WIyWlLk6GJQsqaUBKTNV-1">
          <mxGeometry x="1070" y="275" width="40" height="30" as="geometry" />
        </mxCell>
        <mxCell id="i9Ncjx0NFvdt08tSOxbg-125" value="Yes" style="text;html=1;align=center;verticalAlign=middle;resizable=0;points=[];autosize=1;strokeColor=none;fillColor=none;" vertex="1" parent="WIyWlLk6GJQsqaUBKTNV-1">
          <mxGeometry x="460" y="480" width="40" height="30" as="geometry" />
        </mxCell>
        <mxCell id="i9Ncjx0NFvdt08tSOxbg-126" value="Yes" style="text;html=1;align=center;verticalAlign=middle;resizable=0;points=[];autosize=1;strokeColor=none;fillColor=none;" vertex="1" parent="WIyWlLk6GJQsqaUBKTNV-1">
          <mxGeometry x="640" y="380" width="40" height="30" as="geometry" />
        </mxCell>
        <mxCell id="i9Ncjx0NFvdt08tSOxbg-127" value="Yes" style="text;html=1;align=center;verticalAlign=middle;resizable=0;points=[];autosize=1;strokeColor=none;fillColor=none;" vertex="1" parent="WIyWlLk6GJQsqaUBKTNV-1">
          <mxGeometry x="851" y="380" width="40" height="30" as="geometry" />
        </mxCell>
        <mxCell id="i9Ncjx0NFvdt08tSOxbg-128" value="Yes" style="text;html=1;align=center;verticalAlign=middle;resizable=0;points=[];autosize=1;strokeColor=none;fillColor=none;" vertex="1" parent="WIyWlLk6GJQsqaUBKTNV-1">
          <mxGeometry x="1060" y="380" width="40" height="30" as="geometry" />
        </mxCell>
      </root>
    </mxGraphModel>
  </diagram>
</mxfile>
